<svg xmlns="http://www.w3.org/2000/svg" style="display: none;">

  <symbol id="log-in" viewBox="0 0 32 32">
    <path fill="none"  stroke-linejoin="round" stroke-linecap="round" stroke-miterlimit="4" stroke-width="3.2" d="M20 4h1.6c2.24 0 3.36 0 4.216 0.436 0.753 0.383 1.364 0.995 1.748 1.748 0.436 0.856 0.436 1.976 0.436 4.216v11.2c0 2.24 0 3.36-0.436 4.216-0.384 0.753-0.995 1.364-1.748 1.748-0.856 0.436-1.976 0.436-4.216 0.436h-1.6"></path>
    <path fill="none"  stroke-linejoin="round" stroke-linecap="round" stroke-miterlimit="4" stroke-width="3.2" d="M13.333 9.333l6.667 6.667M20 16l-6.667 6.667M20 16h-16"></path>
  </symbol>
  
  <symbol id="heart" viewBox="0 0 32 32">
  <path stroke-linejoin="round" stroke-linecap="round" stroke-miterlimit="4" stroke-width="2.4615" d="M27.787 6.147c-0.681-0.681-1.49-1.222-2.379-1.591s-1.844-0.559-2.807-0.559-1.917 0.19-2.807 0.559c-0.89 0.369-1.699 0.909-2.38 1.591l-1.413 1.413-1.413-1.413c-1.376-1.376-3.241-2.148-5.187-2.148s-3.811 0.773-5.187 2.148c-1.376 1.376-2.148 3.241-2.148 5.187s0.773 3.811 2.148 5.187l11.787 11.787 11.787-11.787c0.681-0.681 1.222-1.49 1.591-2.379s0.559-1.844 0.559-2.807-0.19-1.917-0.559-2.807c-0.369-0.89-0.909-1.699-1.591-2.38z"></path>
  </symbol>
  
  <symbol id="vision" width="16" height="16" viewBox="0 0 22 16" fill="none">
  <path d="M1.03613 8.322C0.967122 8.11459 0.967122 7.89041 1.03613 7.683C2.42313 3.51 6.36013 0.5 11.0001 0.5C15.6381 0.5 19.5731 3.507 20.9631 7.678C21.0331 7.885 21.0331 8.109 20.9631 8.317C19.5771 12.49 15.6401 15.5 11.0001 15.5C6.36213 15.5 2.42613 12.493 1.03613 8.322Z" stroke="#121417" stroke-linecap="round" stroke-linejoin="round"/>
  <path d="M14 8C14 8.79565 13.6839 9.55871 13.1213 10.1213C12.5587 10.6839 11.7956 11 11 11C10.2044 11 9.44129 10.6839 8.87868 10.1213C8.31607 9.55871 8 8.79565 8 8C8 7.20435 8.31607 6.44129 8.87868 5.87868C9.44129 5.31607 10.2044 5 11 5C11.7956 5 12.5587 5.31607 13.1213 5.87868C13.6839 6.44129 14 7.20435 14 8Z" stroke="#121417" stroke-linecap="round" stroke-linejoin="round"/>
  </symbol>
  
  
  <symbol id="vision-crossed" width="16" height="16" viewBox="0 0 22 20" fill="none">
  <path d="M2.97959 6.223C2.04405 7.32718 1.34741 8.6132 0.933594 10C2.22559 14.338 6.24359 17.5 10.9996 17.5C11.9926 17.5 12.9526 17.362 13.8626 17.105M5.22759 4.228C6.94021 3.09781 8.94767 2.49682 10.9996 2.5C15.7556 2.5 19.7726 5.662 21.0646 9.998C20.3565 12.3673 18.8366 14.4115 16.7716 15.772M5.22759 4.228L1.99959 1M5.22759 4.228L8.87759 7.878M16.7716 15.772L19.9996 19M16.7716 15.772L13.1216 12.122C13.4002 11.8434 13.6212 11.5127 13.772 11.1486C13.9227 10.7846 14.0003 10.3945 14.0003 10.0005C14.0003 9.6065 13.9227 9.21636 13.772 8.85235C13.6212 8.48834 13.4002 8.1576 13.1216 7.879C12.843 7.6004 12.5122 7.3794 12.1482 7.22863C11.7842 7.07785 11.3941 7.00025 11.0001 7.00025C10.6061 7.00025 10.216 7.07785 9.85195 7.22863C9.48794 7.3794 9.15719 7.6004 8.87859 7.879M13.1206 12.121L8.87959 7.88" stroke="#407bff" stroke-linecap="round" stroke-linejoin="round"/>
  </symbol>


  <symbol id="icon-cross" viewBox="0 0 24 24">
  <path fill="none" stroke="#121417" style="stroke: var(--color1, #121417" stroke-linejoin="round" stroke-linecap="round" stroke-miterlimit="4" stroke-width="1.5" d="M6 18l12-12M6 6l12 12"></path>
  </symbol>

  </symbol>
</svg>
